<mxfile host="Electron" modified="2024-06-29T10:08:48.383Z" agent="Mozilla/5.0 (Macintosh; Intel Mac OS X 10_15_7) AppleWebKit/537.36 (KHTML, like Gecko) draw.io/24.5.1 Chrome/124.0.6367.207 Electron/30.0.6 Safari/537.36" etag="dA2EXtP8joUgTGdqdFJs" version="24.5.1" type="device">
  <diagram name="Page-1" id="tk1SGffXZhk0vIe0nPJg">
    <mxGraphModel dx="928" dy="783" grid="1" gridSize="10" guides="1" tooltips="1" connect="1" arrows="1" fold="1" page="1" pageScale="1" pageWidth="827" pageHeight="1169" math="0" shadow="0">
      <root>
        <mxCell id="0" />
        <mxCell id="1" parent="0" />
        <mxCell id="Ox62CAgdItjQWYdI8eQI-43" value="" style="rounded=0;whiteSpace=wrap;html=1;strokeColor=none;" vertex="1" parent="1">
          <mxGeometry x="130" y="447" width="680" height="213" as="geometry" />
        </mxCell>
        <mxCell id="Ox62CAgdItjQWYdI8eQI-2" value="DC-DC Converter" style="rounded=0;whiteSpace=wrap;html=1;fontSize=14;" vertex="1" parent="1">
          <mxGeometry x="150" y="470" width="160" height="160" as="geometry" />
        </mxCell>
        <mxCell id="Ox62CAgdItjQWYdI8eQI-5" style="edgeStyle=orthogonalEdgeStyle;rounded=0;orthogonalLoop=1;jettySize=auto;html=1;exitX=0;exitY=0.25;exitDx=0;exitDy=0;entryX=1;entryY=0.25;entryDx=0;entryDy=0;endArrow=none;endFill=0;" edge="1" parent="1" source="Ox62CAgdItjQWYdI8eQI-3" target="Ox62CAgdItjQWYdI8eQI-2">
          <mxGeometry relative="1" as="geometry" />
        </mxCell>
        <mxCell id="Ox62CAgdItjQWYdI8eQI-34" style="edgeStyle=orthogonalEdgeStyle;rounded=0;orthogonalLoop=1;jettySize=auto;html=1;exitX=1;exitY=0.75;exitDx=0;exitDy=0;endArrow=oval;endFill=1;" edge="1" parent="1" source="Ox62CAgdItjQWYdI8eQI-3">
          <mxGeometry relative="1" as="geometry">
            <mxPoint x="705" y="590" as="targetPoint" />
          </mxGeometry>
        </mxCell>
        <mxCell id="Ox62CAgdItjQWYdI8eQI-35" style="edgeStyle=orthogonalEdgeStyle;rounded=0;orthogonalLoop=1;jettySize=auto;html=1;exitX=1;exitY=0.25;exitDx=0;exitDy=0;endArrow=none;endFill=0;" edge="1" parent="1" source="Ox62CAgdItjQWYdI8eQI-3">
          <mxGeometry relative="1" as="geometry">
            <mxPoint x="780" y="510" as="targetPoint" />
          </mxGeometry>
        </mxCell>
        <mxCell id="Ox62CAgdItjQWYdI8eQI-3" value="TLV733P-Q1" style="rounded=0;whiteSpace=wrap;html=1;fontStyle=1;fontSize=14;" vertex="1" parent="1">
          <mxGeometry x="480" y="470" width="160" height="160" as="geometry" />
        </mxCell>
        <mxCell id="Ox62CAgdItjQWYdI8eQI-10" value="IN" style="text;html=1;align=left;verticalAlign=middle;whiteSpace=wrap;rounded=0;" vertex="1" parent="1">
          <mxGeometry x="486" y="494" width="30" height="30" as="geometry" />
        </mxCell>
        <mxCell id="Ox62CAgdItjQWYdI8eQI-12" style="rounded=0;orthogonalLoop=1;jettySize=auto;html=1;endArrow=oval;endFill=0;" edge="1" parent="1">
          <mxGeometry relative="1" as="geometry">
            <mxPoint x="440" y="590" as="targetPoint" />
            <mxPoint x="480" y="590" as="sourcePoint" />
          </mxGeometry>
        </mxCell>
        <mxCell id="Ox62CAgdItjQWYdI8eQI-11" value="EN" style="text;html=1;align=left;verticalAlign=middle;whiteSpace=wrap;rounded=0;" vertex="1" parent="1">
          <mxGeometry x="486" y="575" width="30" height="30" as="geometry" />
        </mxCell>
        <mxCell id="Ox62CAgdItjQWYdI8eQI-13" value="OUT" style="text;html=1;align=right;verticalAlign=middle;whiteSpace=wrap;rounded=0;" vertex="1" parent="1">
          <mxGeometry x="600" y="494" width="30" height="30" as="geometry" />
        </mxCell>
        <mxCell id="Ox62CAgdItjQWYdI8eQI-14" value="GND" style="text;html=1;align=right;verticalAlign=middle;whiteSpace=wrap;rounded=0;" vertex="1" parent="1">
          <mxGeometry x="600" y="575" width="30" height="30" as="geometry" />
        </mxCell>
        <mxCell id="Ox62CAgdItjQWYdI8eQI-18" style="edgeStyle=orthogonalEdgeStyle;rounded=0;orthogonalLoop=1;jettySize=auto;html=1;exitX=1;exitY=0.5;exitDx=0;exitDy=0;exitPerimeter=0;endArrow=oval;endFill=1;" edge="1" parent="1" source="Ox62CAgdItjQWYdI8eQI-15">
          <mxGeometry relative="1" as="geometry">
            <mxPoint x="389.2857142857142" y="510" as="targetPoint" />
          </mxGeometry>
        </mxCell>
        <mxCell id="Ox62CAgdItjQWYdI8eQI-15" value="" style="pointerEvents=1;verticalLabelPosition=bottom;shadow=0;dashed=0;align=center;html=1;verticalAlign=top;shape=mxgraph.electrical.capacitors.capacitor_1;rotation=-90;" vertex="1" parent="1">
          <mxGeometry x="364" y="534" width="50" height="30" as="geometry" />
        </mxCell>
        <mxCell id="Ox62CAgdItjQWYdI8eQI-16" value="" style="pointerEvents=1;verticalLabelPosition=bottom;shadow=0;dashed=0;align=center;html=1;verticalAlign=top;shape=mxgraph.electrical.signal_sources.protective_earth;" vertex="1" parent="1">
          <mxGeometry x="376.5" y="610" width="25" height="20" as="geometry" />
        </mxCell>
        <mxCell id="Ox62CAgdItjQWYdI8eQI-17" style="edgeStyle=orthogonalEdgeStyle;rounded=0;orthogonalLoop=1;jettySize=auto;html=1;exitX=0.5;exitY=0;exitDx=0;exitDy=0;exitPerimeter=0;entryX=0;entryY=0.5;entryDx=0;entryDy=0;entryPerimeter=0;endArrow=none;endFill=0;" edge="1" parent="1" source="Ox62CAgdItjQWYdI8eQI-16" target="Ox62CAgdItjQWYdI8eQI-15">
          <mxGeometry relative="1" as="geometry" />
        </mxCell>
        <mxCell id="Ox62CAgdItjQWYdI8eQI-22" style="edgeStyle=orthogonalEdgeStyle;rounded=0;orthogonalLoop=1;jettySize=auto;html=1;exitX=0.5;exitY=0;exitDx=0;exitDy=0;exitPerimeter=0;entryX=1;entryY=0.75;entryDx=0;entryDy=0;endArrow=none;endFill=0;" edge="1" parent="1" source="Ox62CAgdItjQWYdI8eQI-19" target="Ox62CAgdItjQWYdI8eQI-2">
          <mxGeometry relative="1" as="geometry">
            <Array as="points">
              <mxPoint x="342" y="590" />
            </Array>
          </mxGeometry>
        </mxCell>
        <mxCell id="Ox62CAgdItjQWYdI8eQI-19" value="" style="pointerEvents=1;verticalLabelPosition=bottom;shadow=0;dashed=0;align=center;html=1;verticalAlign=top;shape=mxgraph.electrical.signal_sources.protective_earth;" vertex="1" parent="1">
          <mxGeometry x="330" y="610" width="25" height="20" as="geometry" />
        </mxCell>
        <mxCell id="Ox62CAgdItjQWYdI8eQI-26" value="" style="group" vertex="1" connectable="0" parent="1">
          <mxGeometry x="393" y="527" width="60" height="47" as="geometry" />
        </mxCell>
        <mxCell id="Ox62CAgdItjQWYdI8eQI-24" value="C&lt;sub&gt;IN&lt;/sub&gt;" style="text;html=1;align=center;verticalAlign=middle;whiteSpace=wrap;rounded=0;" vertex="1" parent="Ox62CAgdItjQWYdI8eQI-26">
          <mxGeometry width="60" height="30" as="geometry" />
        </mxCell>
        <mxCell id="Ox62CAgdItjQWYdI8eQI-25" value="1uF" style="text;html=1;align=center;verticalAlign=middle;whiteSpace=wrap;rounded=0;" vertex="1" parent="Ox62CAgdItjQWYdI8eQI-26">
          <mxGeometry y="17" width="60" height="30" as="geometry" />
        </mxCell>
        <mxCell id="Ox62CAgdItjQWYdI8eQI-27" style="edgeStyle=orthogonalEdgeStyle;rounded=0;orthogonalLoop=1;jettySize=auto;html=1;exitX=1;exitY=0.5;exitDx=0;exitDy=0;exitPerimeter=0;endArrow=oval;endFill=1;" edge="1" parent="1" source="Ox62CAgdItjQWYdI8eQI-28">
          <mxGeometry relative="1" as="geometry">
            <mxPoint x="705.2857142857142" y="510" as="targetPoint" />
          </mxGeometry>
        </mxCell>
        <mxCell id="Ox62CAgdItjQWYdI8eQI-28" value="" style="pointerEvents=1;verticalLabelPosition=bottom;shadow=0;dashed=0;align=center;html=1;verticalAlign=top;shape=mxgraph.electrical.capacitors.capacitor_1;rotation=-90;" vertex="1" parent="1">
          <mxGeometry x="680" y="534" width="50" height="30" as="geometry" />
        </mxCell>
        <mxCell id="Ox62CAgdItjQWYdI8eQI-29" value="" style="pointerEvents=1;verticalLabelPosition=bottom;shadow=0;dashed=0;align=center;html=1;verticalAlign=top;shape=mxgraph.electrical.signal_sources.protective_earth;" vertex="1" parent="1">
          <mxGeometry x="692.5" y="610" width="25" height="20" as="geometry" />
        </mxCell>
        <mxCell id="Ox62CAgdItjQWYdI8eQI-30" style="edgeStyle=orthogonalEdgeStyle;rounded=0;orthogonalLoop=1;jettySize=auto;html=1;exitX=0.5;exitY=0;exitDx=0;exitDy=0;exitPerimeter=0;entryX=0;entryY=0.5;entryDx=0;entryDy=0;entryPerimeter=0;endArrow=none;endFill=0;" edge="1" parent="1" source="Ox62CAgdItjQWYdI8eQI-29" target="Ox62CAgdItjQWYdI8eQI-28">
          <mxGeometry relative="1" as="geometry" />
        </mxCell>
        <mxCell id="Ox62CAgdItjQWYdI8eQI-31" value="" style="group" vertex="1" connectable="0" parent="1">
          <mxGeometry x="709" y="527" width="60" height="47" as="geometry" />
        </mxCell>
        <mxCell id="Ox62CAgdItjQWYdI8eQI-32" value="C&lt;span style=&quot;font-size: 10px;&quot;&gt;&lt;sub&gt;OUT&lt;/sub&gt;&lt;/span&gt;" style="text;html=1;align=center;verticalAlign=middle;whiteSpace=wrap;rounded=0;" vertex="1" parent="Ox62CAgdItjQWYdI8eQI-31">
          <mxGeometry width="60" height="30" as="geometry" />
        </mxCell>
        <mxCell id="Ox62CAgdItjQWYdI8eQI-33" value="1uF" style="text;html=1;align=center;verticalAlign=middle;whiteSpace=wrap;rounded=0;" vertex="1" parent="Ox62CAgdItjQWYdI8eQI-31">
          <mxGeometry y="17" width="60" height="30" as="geometry" />
        </mxCell>
        <mxCell id="Ox62CAgdItjQWYdI8eQI-36" value="" style="group" vertex="1" connectable="0" parent="1">
          <mxGeometry x="420" y="460" width="60" height="47" as="geometry" />
        </mxCell>
        <mxCell id="Ox62CAgdItjQWYdI8eQI-37" value="V&lt;span style=&quot;font-size: 10px;&quot;&gt;&lt;sub&gt;IN&lt;/sub&gt;&lt;/span&gt;" style="text;html=1;align=center;verticalAlign=middle;whiteSpace=wrap;rounded=0;" vertex="1" parent="Ox62CAgdItjQWYdI8eQI-36">
          <mxGeometry width="60" height="30" as="geometry" />
        </mxCell>
        <mxCell id="Ox62CAgdItjQWYdI8eQI-38" value="3.3V" style="text;html=1;align=center;verticalAlign=middle;whiteSpace=wrap;rounded=0;" vertex="1" parent="Ox62CAgdItjQWYdI8eQI-36">
          <mxGeometry y="17" width="60" height="30" as="geometry" />
        </mxCell>
        <mxCell id="Ox62CAgdItjQWYdI8eQI-39" value="" style="group" vertex="1" connectable="0" parent="1">
          <mxGeometry x="740" y="460" width="60" height="47" as="geometry" />
        </mxCell>
        <mxCell id="Ox62CAgdItjQWYdI8eQI-40" value="V&lt;span style=&quot;font-size: 10px;&quot;&gt;&lt;sub&gt;OUT&lt;/sub&gt;&lt;/span&gt;" style="text;html=1;align=center;verticalAlign=middle;whiteSpace=wrap;rounded=0;" vertex="1" parent="Ox62CAgdItjQWYdI8eQI-39">
          <mxGeometry width="60" height="30" as="geometry" />
        </mxCell>
        <mxCell id="Ox62CAgdItjQWYdI8eQI-41" value="1.1V" style="text;html=1;align=center;verticalAlign=middle;whiteSpace=wrap;rounded=0;" vertex="1" parent="Ox62CAgdItjQWYdI8eQI-39">
          <mxGeometry y="17" width="60" height="30" as="geometry" />
        </mxCell>
      </root>
    </mxGraphModel>
  </diagram>
</mxfile>
